#!OML:ASF E:\Steps\Project 1\Capture day 1\Session 2\Subject.ASF
:FULLY-SPECIFIED
:DEGREES
407
root 11.6962 18.8495 17.1624 -153.379 3.85367 178.676
lowerback -28.5898 -4.68393 -9.32052
upperback -2.01815 -2.03939 -1.26219
thorax 13.1069 -1.01955 2.98721
lowerneck -3.39629 -3.27806 0.700823
upperneck 7.59615 -4.64276 5.53627
head 3.16957 -1.98492 1.50998
rclavicle 2.52457e-014 7.95139e-015
rhumerus -41.667 -18.8591 -76.839
rradius 28.7829
rwrist 0.799233
rhand -9.26595 -412.81
rfingers 7.12502
rthumb -163.31 97.8876
lclavicle 2.52457e-014 7.95139e-015
lhumerus -31.7613 6.81149 75.7313
lradius 18.4917
lwrist -5.49981
lhand -23.4252 -11.9485
lfingers 7.12502
lthumb 3.03248 18.0096
rfemur -30.2245 12.4857 15.8536
rtibia 15.2589
rfoot -20.0173 -3.19401
rtoes -9.89564
lfemur -25.858 -5.02981 -25.2707
ltibia 12.1123
lfoot -11.6649 2.3808
ltoes -41.4342
408
root 11.7049 18.8444 17.1598 -153.236 3.8436 178.72
lowerback -29.1485 -4.66966 -9.35333
upperback -1.76725 -1.95294 -1.22278
thorax 13.6383 -1.01629 3.0572
lowerneck -3.46226 -3.424 0.822029
upperneck 6.80569 -4.83423 5.56674
head 2.91475 -2.10573 1.48832
rclavicle 8.34896e-015 -1.59028e-015
rhumerus -41.0869 -18.9661 -77.0112
rradius 28.7285
rwrist 0.845155
rhand -9.37379 -413.122
rfingers 7.12502
rthumb -163.413 97.5669
lclavicle 8.34896e-015 -1.59028e-015
lhumerus -31.3456 6.64099 75.9848
lradius 18.6637
lwrist -5.24072
lhand -23.5045 -11.8157
lfingers 7.12502
lthumb 2.95586 18.1436
rfemur -30.3298 12.5168 15.9152
rtibia 15.235
rfoot -19.9556 -3.2012
rtoes -10.3215
lfemur -26.0121 -4.90484 -25.2028
ltibia 12.1337
lfoot -11.6489 2.2612
ltoes -41.2235
409
root 11.7088 18.8437 17.1528 -153.305 3.80453 178.824
lowerback -29.1801 -4.58962 -9.24891
upperback -1.72409 -1.88952 -1.20802
thorax 13.6934 -0.990038 3.04085
lowerneck -3.61595 -3.02727 0.836768
upperneck 6.61387 -4.29389 5.25344
head 2.85256 -1.859 1.40078
rclavicle -2.52457e-014 -4.37326e-014
rhumerus -40.8714 -19.1521 -77.0116
rradius 28.5479
rwrist 1.14156
rhand -9.18171 -412.509
rfingers 7.12502
rthumb -163.228 98.1951
lclavicle -2.52457e-014 -4.37326e-014
lhumerus -31.3886 6.47472 76.0957
lradius 19.0148
lwrist -4.93684
lhand -23.2095 -11.7447
lfingers 7.12502
lthumb 3.24077 18.2105
rfemur -30.0775 12.3534 16.1437
rtibia 15.031
rfoot -19.9605 -3.00843
rtoes -10.7342
lfemur -25.8617 -4.89861 -25.0665
ltibia 12.0438
lfoot -11.6326 2.25378
ltoes -40.5832
410
root 11.7127 18.8382 17.1445 -153.146 3.81924 178.859
lowerback -29.1484 -4.54788 -9.2297
upperback -1.95078 -1.82989 -1.16936
thorax 13.4137 -0.932766 3.10247
lowerneck -3.47599 -2.87989 0.91972
upperneck 6.17638 -4.076 5.03425
head 2.66414 -1.77552 1.32321
rclavicle -3.57812e-015 -7.15625e-015
rhumerus -40.9968 -19.1 -76.9323
rradius 28.4279
rwrist 1.18503
rhand -9.13141 -412.275
rfingers 7.12502
rthumb -163.18 98.4334
lclavicle -3.57812e-015 -7.15625e-015
lhumerus -31.7846 6.08811 76.3056
lradius 19.4101
lwrist -4.66034
lhand -23.2187 -11.7081
lfingers 7.12502
lthumb 3.23186 18.2471
rfemur -30.1691 12.1759 16.231
rtibia 14.9424
rfoot -19.8396 -2.85535
rtoes -11.5321
lfemur -25.9868 -4.83622 -25.031
ltibia 12.0135
lfoot -11.5825 2.16114
ltoes -40.1592
411
root 11.7124 18.8352 17.1324 -153.139 3.77413 178.9
lowerback -29.6793 -4.44272 -9.02619
upperback -1.64781 -1.69194 -1.2653
thorax 13.9775 -0.894852 2.92362
lowerneck -3.79687 -3.02951 0.966694
upperneck 5.75569 -4.29102 5.34686
head 2.5964 -1.87774 1.40502
rclavicle 8.15017e-015 3.57812e-014
rhumerus -40.362 -19.3735 -77.2022
rradius 28.2479
rwrist 1.2179
rhand -9.18203 -412.362
rfingers 7.12502
rthumb -163.229 98.3429
lclavicle 8.15017e-015 3.57812e-014
lhumerus -31.3157 5.80035 76.44
lradius 19.5
lwrist -4.6028
lhand -23.5206 -11.5902
lfingers 7.12502
lthumb 2.94036 18.3693
rfemur -30.0799 12.0375 16.3266
rtibia 14.8471
rfoot -19.7368 -2.75498
rtoes -11.919
lfemur -25.8848 -4.90494 -24.972
ltibia 11.8897
lfoot -11.4444 2.2171
ltoes -40.3322
412
root 11.7098 18.8355 17.1219 -153.182 3.78865 178.849
lowerback -29.3484 -4.38131 -9.04291
upperback -1.90558 -1.63479 -1.25135
thorax 13.5272 -0.837221 2.98509
lowerneck -3.40073 -3.23686 0.921724
upperneck 5.09213 -4.5345 5.55755
head 2.31713 -2.01729 1.47723
rclavicle 2.68359e-014 -1.82882e-014
rhumerus -40.5972 -19.3754 -76.9845
rradius 28.1518
rwrist 1.32774
rhand -9.03162 -411.784
rfingers 7.12502
rthumb -163.084 98.9323
lclavicle 2.68359e-014 -1.82882e-014
lhumerus -31.6504 5.53512 76.6154
lradius 19.6013
lwrist -4.39079
lhand -23.5196 -11.7872
lfingers 7.12502
lthumb 2.94133 18.1723
rfemur -29.9521 11.8612 16.2933
rtibia 14.7444
rfoot -19.749 -2.5905
rtoes -11.8037
lfemur -25.7313 -5.07791 -25.0197
ltibia 11.7531
lfoot -11.3009 2.33423
ltoes -40.3683
413
root 11.7125 18.8367 17.1129 -153.186 3.90837 178.664
lowerback -29.1206 -4.36562 -9.30219
upperback -2.14368 -1.53621 -1.24456
thorax 13.1454 -0.772788 3.1793
lowerneck -2.83764 -3.38988 1.03221
upperneck 4.17325 -4.68663 5.52556
head 1.91344 -2.12848 1.45119
rclavicle 8.15017e-015 -4.85035e-014
rhumerus -40.8829 -19.2906 -76.8058
rradius 28.1696
rwrist 1.48013
rhand -8.93701 -411.8
rfingers 7.12502
rthumb -162.993 98.9243
lclavicle 8.15017e-015 -4.85035e-014
lhumerus -31.9788 5.13001 76.9186
lradius 19.7695
lwrist -4.02818
lhand -23.4915 -11.9917
lfingers 7.12502
lthumb 2.96847 17.9674
rfemur -29.8671 11.7399 16.0989
rtibia 14.6213
rfoot -19.7246 -2.46028
rtoes -11.9652
lfemur -25.6872 -5.14865 -25.2533
ltibia 11.7625
lfoot -11.3127 2.26087
ltoes -39.6922
414
root 11.7152 18.8389 17.1001 -153.295 3.80341 178.495
lowerback -29.3575 -4.36857 -9.33681
upperback -1.96158 -1.4848 -1.34983
thorax 13.4507 -0.769593 3.09437
lowerneck -2.11478 -3.42893 1.08639
upperneck 2.50837 -4.642 5.84874
head 1.25952 -2.15481 1.56082
rclavicle -2.5842e-015 1.03368e-014
rhumerus -40.6328 -19.3862 -76.9989
rradius 28.1882
rwrist 1.65053
rhand -8.92343 -412.282
rfingers 7.12502
rthumb -162.98 98.4438
lclavicle -2.5842e-015 1.03368e-014
lhumerus -31.7576 4.76446 77.1081
lradius 19.9365
lwrist -3.75411
lhand -23.6011 -11.6965
lfingers 7.12502
lthumb 2.86257 18.264
rfemur -29.572 11.6481 15.9508
rtibia 14.3937
rfoot -19.7176 -2.58225
rtoes -12.2917
lfemur -25.4787 -5.3856 -25.39
ltibia 11.674
lfoot -11.3601 2.27018
ltoes -38.9353
415
root 11.7204 18.8401 17.0915 -153.37 3.61979 178.451
lowerback -29.1782 -4.4288 -9.40616
upperback -2.04352 -1.58389 -1.22973
thorax 13.293 -0.812741 3.22841
lowerneck -2.70741 -3.19272 0.721933
upperneck 3.13915 -4.37141 5.67985
head 1.56168 -2.00684 1.56545
rclavicle -7.55382e-015 9.54166e-015
rhumerus -40.6188 -19.0572 -76.9612
rradius 28.2085
rwrist 1.56715
rhand -9.02253 -412.143
rfingers 7.12502
rthumb -163.075 98.5744
lclavicle -7.55382e-015 9.54166e-015
lhumerus -31.9035 4.72699 77.3682
lradius 20.1635
lwrist -3.60547
lhand -23.6162 -11.2715
lfingers 7.12502
lthumb 2.84803 18.6892
rfemur -29.2942 11.5038 16.0149
rtibia 14.1376
rfoot -19.6797 -2.6446
rtoes -12.4182
lfemur -25.2779 -5.32915 -25.4141
ltibia 11.4868
lfoot -11.2597 2.06809
ltoes -38.6079
416
root 11.7251 18.8389 17.0858 -153.371 3.57387 178.443
lowerback -29.1518 -4.41567 -9.39192
upperback -2.07167 -1.58636 -1.16807
thorax 13.2512 -0.812825 3.28776
lowerneck -3.6686 -3.09172 0.647394
upperneck 3.98571 -4.29877 5.37002
head 1.99705 -1.94751 1.46785
rclavicle -1.59028e-014 7.63333e-014
rhumerus -40.4439 -18.6919 -77.08
rradius 28.1972
rwrist 1.29329
rhand -9.19174 -411.892
rfingers 7.12502
rthumb -163.238 98.8113
lclavicle -1.59028e-014 7.63333e-014
lhumerus -31.9178 4.79726 77.5171
lradius 20.3782
lwrist -3.47991
lhand -23.5098 -11.2226
lfingers 7.12502
lthumb 2.95078 18.7367
rfemur -29.1014 11.2002 16.1223
rtibia 13.8428
rfoot -19.5366 -2.38529
rtoes -12.3195
lfemur -25.1783 -5.23856 -25.4239
ltibia 11.3303
lfoot -11.1931 1.91685
ltoes -38.7244
417
root 11.7295 18.8379 17.0782 -153.395 3.53143 178.432
lowerback -29.135 -4.39137 -9.41996
upperback -2.07245 -1.55843 -1.11972
thorax 13.2415 -0.804379 3.36613
lowerneck -3.8275 -3.07881 0.571007
upperneck 3.76663 -4.27599 5.47792
head 1.95898 -1.93758 1.51478
rclavicle 5.1684e-015 5.725e-014
rhumerus -40.2617 -18.6084 -77.0875
rradius 28.1459
rwrist 1.14405
rhand -9.22133 -412.003
rfingers 7.12502
rthumb -163.267 98.6982
lclavicle 5.1684e-015 5.725e-014
lhumerus -31.9142 4.90046 77.6383
lradius 20.4945
lwrist -3.55364
lhand -23.485 -11.9865
lfingers 7.12502
lthumb 2.97472 17.9725
rfemur -28.8362 10.8993 16.2206
rtibia 13.468
rfoot -19.3875 -2.12023
rtoes -12.2977
lfemur -25.0537 -5.28561 -25.3986
ltibia 11.192
lfoot -11.1571 1.88259
ltoes -38.3863
